<svg width="53" height="40" viewBox="0 0 53 40" fill="none" xmlns="http://www.w3.org/2000/svg">
<path fill-rule="evenodd" clip-rule="evenodd" d="M48.2272 35.8245H16.2841L5.32249 19.9342L16.2841 4.04387H48.2272V35.8245ZM50.197 0.0712891H15.2559C14.6118 0.0712891 14.007 0.389095 13.6387 0.923406L1.3062 18.8C0.835433 19.4813 0.835433 20.387 1.3062 21.0683L13.6387 38.9449C14.007 39.4792 14.6118 39.7971 15.2559 39.7971H50.197C51.2843 39.7971 52.1667 38.9072 52.1667 37.8108V2.05758C52.1667 0.961146 51.2843 0.0712891 50.197 0.0712891ZM22.213 27.7939C22.5971 28.1812 23.1013 28.3759 23.6056 28.3759C24.1098 28.3759 24.6141 28.1812 24.9982 27.7939L30.0072 22.7428L35.0162 27.7939C35.4003 28.1812 35.9046 28.3759 36.4088 28.3759C36.9131 28.3759 37.4173 28.1812 37.8014 27.7939C38.5716 27.0173 38.5716 25.7619 37.8014 24.9853L32.7924 19.9342L37.8014 14.883C38.5716 14.1064 38.5716 12.8511 37.8014 12.0744C37.0313 11.2978 35.7864 11.2978 35.0162 12.0744L30.0072 17.1256L24.9982 12.0744C24.228 11.2978 22.9831 11.2978 22.213 12.0744C21.4428 12.8511 21.4428 14.1064 22.213 14.883L27.222 19.9342L22.213 24.9853C21.4428 25.7619 21.4428 27.0173 22.213 27.7939Z" fill="#F9F9F9"/>
</svg>
