<svg width="230" height="230" viewBox="0 0 230 230" fill="none" xmlns="http://www.w3.org/2000/svg">
<rect width="230" height="230" fill="white" style="mix-blend-mode:multiply"/>
<path d="M100.625 153.913L64.6875 117.968L74.8434 107.812L100.625 133.587L155.142 79.0625L165.312 89.2328L100.625 153.913Z" fill="#0AC16C"/>
<path d="M115 14.375C95.0982 14.375 75.6434 20.2766 59.0957 31.3334C42.548 42.3902 29.6506 58.1057 22.0346 76.4925C14.4185 94.8793 12.4258 115.112 16.3084 134.631C20.1911 154.15 29.7747 172.08 43.8473 186.153C57.92 200.225 75.8497 209.809 95.369 213.692C114.888 217.574 135.121 215.581 153.507 207.965C171.894 200.349 187.61 187.452 198.667 170.904C209.723 154.357 215.625 134.902 215.625 115C215.625 88.3126 205.023 62.7182 186.153 43.8474C167.282 24.9765 141.687 14.375 115 14.375ZM115 201.25C97.9413 201.25 81.2658 196.192 67.082 186.714C52.8983 177.237 41.8434 163.767 35.3153 148.006C28.7873 132.246 27.0792 114.904 30.4072 98.1735C33.7352 81.4426 41.9497 66.0743 54.012 54.012C66.0743 41.9498 81.4426 33.7352 98.1734 30.4073C114.904 27.0793 132.246 28.7873 148.006 35.3154C163.767 41.8434 177.237 52.8983 186.714 67.0821C196.191 81.2658 201.25 97.9414 201.25 115C201.25 137.875 192.163 159.813 175.988 175.988C159.813 192.163 137.875 201.25 115 201.25Z" fill="#0AC16C"/>
</svg>
