<svg width="127" height="128" viewBox="0 0 127 128" fill="none" xmlns="http://www.w3.org/2000/svg">
<path d="M108.54 24H16.5291C14.5327 24.0009 12.6184 24.8078 11.2066 26.2434C9.79485 27.6791 9.0012 29.626 9 31.6564V96.1997C9.0012 98.2299 9.79472 100.177 11.2062 101.612C12.6177 103.048 14.5318 103.855 16.528 103.856H108.539C110.535 103.855 112.449 103.048 113.861 101.612C115.272 100.177 116.066 98.2299 116.067 96.1997V31.6564C116.066 29.6262 115.272 27.6794 113.861 26.2438C112.449 24.8082 110.535 24.0012 108.539 24H108.54ZM112.5 96.1997C112.499 97.2674 112.081 98.2911 111.339 99.0461C110.597 99.8011 109.59 100.226 108.54 100.227H16.5291C15.4793 100.226 14.4728 99.8011 13.7305 99.0461C12.9881 98.2911 12.5707 97.2674 12.5698 96.1997V31.6564C12.5704 30.5886 12.9877 29.5647 13.7301 28.8097C14.4725 28.0546 15.4792 27.6301 16.5291 27.6295H108.54C109.59 27.6301 110.597 28.0546 111.339 28.8097C112.082 29.5647 112.499 30.5886 112.5 31.6564V96.1997Z" fill="#0C7BF7"/>
<path d="M42.575 73.0006H21.3046C20.6881 73.0138 20.1021 73.2301 19.6715 73.6037C19.241 73.9772 19 74.4783 19 75C19 75.5217 19.241 76.0228 19.6715 76.3963C20.1021 76.7698 20.6881 76.9862 21.3046 76.9994H42.5765C42.8919 77.0061 43.2056 76.9593 43.4993 76.8619C43.793 76.7644 44.0606 76.6182 44.2864 76.4319C44.5123 76.2456 44.6918 76.0229 44.8143 75.777C44.9369 75.531 45 75.2669 45 75C45 74.7331 44.9369 74.4689 44.8143 74.223C44.6918 73.9771 44.5123 73.7544 44.2864 73.5681C44.0606 73.3818 43.793 73.2356 43.4993 73.1381C43.2056 73.0406 42.8919 72.9939 42.5765 73.0006H42.575Z" fill="#0C7BF7"/>
<path d="M42.6939 80.0006H21.4235C21.1081 79.9939 20.7944 80.0406 20.5007 80.1381C20.207 80.2356 19.9394 80.3818 19.7136 80.5681C19.4877 80.7544 19.3082 80.9771 19.1857 81.223C19.0631 81.4689 19 81.7331 19 82C19 82.2669 19.0631 82.531 19.1857 82.777C19.3082 83.0229 19.4877 83.2456 19.7136 83.4319C19.9394 83.6182 20.207 83.7644 20.5007 83.8619C20.7944 83.9593 21.1081 84.0061 21.4235 83.9994H42.6954C43.3119 83.9862 43.8979 83.7698 44.3285 83.3963C44.759 83.0228 45 82.5217 45 82C45 81.4783 44.759 80.9772 44.3285 80.6037C43.8979 80.2301 43.3119 80.0138 42.6954 80.0006H42.6939Z" fill="#0C7BF7"/>
<rect x="85" y="70" width="16" height="17" rx="6" stroke="#0C7BF7" stroke-width="4"/>
<rect x="11" y="39" width="102" height="4" fill="#0C7BF7"/>
<rect x="11" y="54" width="102" height="4" fill="#0C7BF7"/>
</svg>
