<svg width="127" height="126" viewBox="0 0 127 126" fill="none" xmlns="http://www.w3.org/2000/svg">
<path d="M109.08 23.1165H17.0689C15.0725 23.1174 13.1582 23.9243 11.7464 25.3599C10.3346 26.7955 9.54099 28.7424 9.53979 30.7729V95.3162C9.54099 97.3464 10.3345 99.2931 11.746 100.729C13.1575 102.164 15.0716 102.971 17.0678 102.973H109.079C111.075 102.971 112.989 102.164 114.401 100.729C115.812 99.2931 116.606 97.3464 116.607 95.3162V30.7729C116.606 28.7426 115.812 26.7959 114.401 25.3603C112.989 23.9247 111.075 23.1177 109.079 23.1165H109.08ZM113.039 95.3162C113.038 96.3839 112.621 97.4076 111.879 98.1626C111.136 98.9175 110.13 99.3421 109.08 99.343H17.0689C16.0191 99.3421 15.0126 98.9175 14.2703 98.1626C13.5279 97.4076 13.1105 96.3839 13.1096 95.3162V30.7729C13.1102 29.7051 13.5275 28.6812 14.2699 27.9261C15.0123 27.1711 16.019 26.7466 17.0689 26.746H109.08C110.13 26.7466 111.137 27.1711 111.879 27.9261C112.621 28.6812 113.039 29.7051 113.039 30.7729V95.3162Z" fill="#0C7BF7"/>
<path d="M38.0909 75.7507H22.0313C21.5658 75.7626 21.1233 75.959 20.7983 76.298C20.4732 76.6371 20.2913 77.0919 20.2913 77.5655C20.2913 78.039 20.4732 78.4938 20.7983 78.8329C21.1233 79.1719 21.5658 79.3683 22.0313 79.3802H38.092C38.3301 79.3863 38.567 79.3439 38.7887 79.2554C39.0105 79.167 39.2125 79.0343 39.3831 78.8652C39.5536 78.696 39.6891 78.4939 39.7816 78.2707C39.8742 78.0475 39.9218 77.8077 39.9218 77.5655C39.9218 77.3232 39.8742 77.0834 39.7816 76.8602C39.6891 76.637 39.5536 76.4349 39.3831 76.2658C39.2125 76.0966 39.0105 75.9639 38.7887 75.8755C38.567 75.787 38.3301 75.7446 38.092 75.7507H38.0909Z" fill="#0C7BF7"/>
<path d="M61.2905 75.7507H45.2309C44.9928 75.7446 44.7559 75.787 44.5342 75.8755C44.3125 75.9639 44.1104 76.0966 43.9399 76.2658C43.7694 76.4349 43.6338 76.637 43.5413 76.8602C43.4488 77.0834 43.4011 77.3232 43.4011 77.5655C43.4011 77.8077 43.4488 78.0475 43.5413 78.2707C43.6338 78.4939 43.7694 78.696 43.9399 78.8652C44.1104 79.0343 44.3125 79.167 44.5342 79.2554C44.7559 79.3439 44.9928 79.3863 45.2309 79.3802H61.2917C61.7571 79.3683 62.1996 79.1719 62.5247 78.8329C62.8497 78.4938 63.0317 78.039 63.0317 77.5655C63.0317 77.0919 62.8497 76.6371 62.5247 76.298C62.1996 75.959 61.7571 75.7626 61.2917 75.7507H61.2905Z" fill="#0C7BF7"/>
<path d="M23.8162 84.8237H22.0313C21.5658 84.8356 21.1233 85.032 20.7983 85.3711C20.4732 85.7101 20.2913 86.1649 20.2913 86.6385C20.2913 87.112 20.4732 87.5669 20.7983 87.9059C21.1233 88.2449 21.5658 88.4414 22.0313 88.4533H23.8162C24.2817 88.4414 24.7241 88.2449 25.0492 87.9059C25.3743 87.5669 25.5562 87.112 25.5562 86.6385C25.5562 86.1649 25.3743 85.7101 25.0492 85.3711C24.7241 85.032 24.2817 84.8356 23.8162 84.8237Z" fill="#0C7BF7"/>
<path d="M34.5236 84.8233H30.9549C30.7168 84.8172 30.4799 84.8596 30.2582 84.9481C30.0365 85.0366 29.8344 85.1693 29.6639 85.3384C29.4934 85.5075 29.3578 85.7096 29.2653 85.9328C29.1728 86.1561 29.1251 86.3958 29.1251 86.6381C29.1251 86.8803 29.1728 87.1201 29.2653 87.3433C29.3578 87.5665 29.4934 87.7687 29.6639 87.9378C29.8344 88.1069 30.0365 88.2396 30.2582 88.3281C30.4799 88.4165 30.7168 88.459 30.9549 88.4529H34.5236C34.9891 88.441 35.4315 88.2445 35.7566 87.9055C36.0817 87.5665 36.2636 87.1116 36.2636 86.6381C36.2636 86.1645 36.0817 85.7097 35.7566 85.3707C35.4315 85.0316 34.9891 84.8352 34.5236 84.8233Z" fill="#0C7BF7"/>
<path d="M43.4455 84.8237H41.6605C41.1951 84.8356 40.7526 85.032 40.4275 85.3711C40.1025 85.7101 39.9205 86.1649 39.9205 86.6385C39.9205 87.112 40.1025 87.5669 40.4275 87.9059C40.7526 88.2449 41.1951 88.4414 41.6605 88.4533H43.4455C43.9109 88.4414 44.3534 88.2449 44.6785 87.9059C45.0035 87.5669 45.1855 87.112 45.1855 86.6385C45.1855 86.1649 45.0035 85.7101 44.6785 85.3711C44.3534 85.032 43.9109 84.8356 43.4455 84.8237Z" fill="#0C7BF7"/>
<path d="M54.151 84.8233H50.5823C50.1168 84.8352 49.6744 85.0316 49.3493 85.3707C49.0242 85.7097 48.8423 86.1645 48.8423 86.6381C48.8423 87.1116 49.0242 87.5665 49.3493 87.9055C49.6744 88.2445 50.1168 88.441 50.5823 88.4529H54.151C54.3891 88.459 54.626 88.4165 54.8477 88.3281C55.0694 88.2396 55.2715 88.1069 55.442 87.9378C55.6125 87.7687 55.7481 87.5665 55.8406 87.3433C55.9331 87.1201 55.9808 86.8803 55.9808 86.6381C55.9808 86.3958 55.9331 86.1561 55.8406 85.9328C55.7481 85.7096 55.6125 85.5075 55.442 85.3384C55.2715 85.1693 55.0694 85.0366 54.8477 84.9481C54.626 84.8596 54.3891 84.8172 54.151 84.8233Z" fill="#0C7BF7"/>
<path d="M60.0262 85.3529C59.777 85.6069 59.6073 85.9304 59.5387 86.2824C59.4701 86.6345 59.5056 86.9993 59.6408 87.3308C59.776 87.6623 60.0048 87.9456 60.2982 88.145C60.5917 88.3443 60.9367 88.4507 61.2895 88.4507C61.6424 88.4507 61.9874 88.3443 62.2808 88.145C62.5743 87.9456 62.8031 87.6623 62.9382 87.3308C63.0734 86.9993 63.109 86.6345 63.0404 86.2824C62.9718 85.9304 62.8022 85.6069 62.5529 85.3529C62.2094 85.0287 61.7581 84.8485 61.2895 84.8485C60.821 84.8485 60.3697 85.0287 60.0262 85.3529Z" fill="#0C7BF7"/>
<path d="M95.1949 68.4883C92.9998 68.4898 90.8445 69.0841 88.9494 70.2106C87.051 69.0886 84.8955 68.4953 82.6999 68.4906C80.5043 68.4859 78.3462 69.0698 76.4432 70.1836C74.5402 71.2974 72.9594 72.9017 71.8603 74.8348C70.7611 76.7679 70.1824 78.9615 70.1824 81.1946C70.1824 83.4277 70.7611 85.6213 71.8603 87.5544C72.9594 89.4875 74.5402 91.0918 76.4432 92.2056C78.3462 93.3194 80.5043 93.9034 82.6999 93.8986C84.8955 93.8939 87.051 93.3006 88.9494 92.1786C90.6075 93.1541 92.4642 93.7284 94.3756 93.8571C96.287 93.9859 98.2019 93.6655 99.972 92.9208C101.742 92.1762 103.32 91.0272 104.584 89.5628C105.847 88.0985 106.762 86.3581 107.258 84.4763C107.755 82.5945 107.818 80.6219 107.445 78.711C107.071 76.8002 106.27 75.0025 105.104 73.457C103.937 71.9114 102.437 70.6596 100.719 69.7984C99.0005 68.9372 97.1104 68.4897 95.1949 68.4906V68.4883ZM91.6251 81.1877C91.6244 82.3924 91.3873 83.5848 90.9276 84.695C90.468 85.8053 89.7951 86.8111 88.9483 87.6534C88.1011 86.8114 87.4279 85.8057 86.9683 84.6954C86.5087 83.585 86.2719 82.3925 86.2719 81.1877C86.2719 79.983 86.5087 78.7904 86.9683 77.6801C87.4279 76.5697 88.1011 75.564 88.9483 74.722C89.7951 75.5644 90.468 76.5701 90.9276 77.6804C91.3873 78.7906 91.6244 79.9831 91.6251 81.1877ZM73.7806 81.1877C73.7717 79.7139 74.1181 78.2603 74.7895 76.9541C75.4609 75.648 76.4368 74.529 77.6318 73.6952C78.8268 72.8615 80.2044 72.3382 81.6443 72.1713C83.0841 72.0044 84.5422 72.199 85.891 72.7379C83.8381 75.0573 82.7022 78.0675 82.7022 81.1883C82.7022 84.309 83.8381 87.3193 85.891 89.6387C84.5422 90.1776 83.0841 90.3722 81.6443 90.2053C80.2044 90.0384 78.8268 89.5151 77.6318 88.6813C76.4368 87.8476 75.4609 86.7286 74.7895 85.4225C74.1181 84.1163 73.7717 82.6627 73.7806 81.1889V81.1877ZM95.1937 90.2588C94.1023 90.2514 93.0215 90.0396 92.0055 89.6341C94.0584 87.3147 95.1944 84.3044 95.1944 81.1837C95.1944 78.063 94.0584 75.0527 92.0055 72.7333C93.2269 72.2556 94.5368 72.0573 95.842 72.1525C97.1473 72.2478 98.4159 72.6342 99.5577 73.2844C100.7 73.9345 101.687 74.8324 102.449 75.9143C103.211 76.9962 103.73 78.2355 103.968 79.5443C104.206 80.853 104.158 82.199 103.826 83.4866C103.495 84.7742 102.89 85.9719 102.052 86.9946C101.215 88.0172 100.166 88.8397 98.9805 89.4037C97.7952 89.9676 96.5023 90.2592 95.1937 90.2576V90.2588Z" fill="#0C7BF7"/>
<path d="M24.269 63.0453H48.3421C49.409 63.0447 50.4321 62.6134 51.1866 61.846C51.941 61.0787 52.3651 60.0381 52.3657 58.953V41.7295C52.3651 40.6443 51.941 39.6038 51.1866 38.8365C50.4321 38.0692 49.409 37.6378 48.3421 37.6372H24.269C23.2021 37.6378 22.179 38.0692 21.4245 38.8365C20.6701 39.6038 20.246 40.6443 20.2454 41.7295V58.953C20.246 60.0381 20.6701 61.0787 21.4245 61.846C22.179 62.6134 23.2021 63.0447 24.269 63.0453ZM30.9525 52.1555H23.8152V48.5259H30.9525V52.1555ZM23.8152 58.953V55.7896H30.9525V58.9576C30.9586 59.1116 30.9744 59.265 30.9999 59.4169H24.269C24.1492 59.4169 24.0344 59.3685 23.9497 59.2824C23.865 59.1962 23.8174 59.0794 23.8174 58.9576L23.8152 58.953ZM48.7982 52.1555H41.6608V48.9875C41.6608 48.8657 41.7084 48.7489 41.7931 48.6627C41.8778 48.5766 41.9926 48.5282 42.1124 48.5282H48.3409C48.4923 48.5221 48.6432 48.506 48.7925 48.48L48.7982 52.1555ZM48.3466 59.4146H41.6156C41.6412 59.2627 41.6571 59.1093 41.6631 58.9553V55.7896H48.8004V58.9576C48.8004 59.0794 48.7529 59.1962 48.6682 59.2824C48.5835 59.3685 48.4686 59.4169 48.3489 59.4169L48.3466 59.4146ZM48.3466 41.2656C48.4663 41.2656 48.5812 41.314 48.6659 41.4001C48.7506 41.4863 48.7982 41.6031 48.7982 41.7249V44.4302C48.7982 44.552 48.7506 44.6688 48.6659 44.7549C48.5812 44.8411 48.4663 44.8895 48.3466 44.8895H42.1135C41.0466 44.8901 40.0235 45.3214 39.2691 46.0887C38.5146 46.8561 38.0905 47.8966 38.0899 48.9817V58.9473C38.0899 59.0691 38.0423 59.1859 37.9576 59.272C37.8729 59.3582 37.7581 59.4066 37.6383 59.4066H34.9784C34.8587 59.4066 34.7438 59.3582 34.6591 59.272C34.5744 59.1859 34.5268 59.0691 34.5268 58.9473V41.7238C34.5268 41.602 34.5744 41.4851 34.6591 41.399C34.7438 41.3129 34.8587 41.2645 34.9784 41.2645L48.3466 41.2656ZM24.2735 41.2656H31.0045C30.9789 41.4175 30.9631 41.5709 30.9571 41.7249V44.8929H23.8197V41.7249C23.8197 41.6031 23.8672 41.4863 23.9519 41.4001C24.0366 41.314 24.1515 41.2656 24.2713 41.2656H24.2735Z" fill="#0C7BF7"/>
</svg>
