<svg width="135" height="126" viewBox="0 0 135 126" fill="none" xmlns="http://www.w3.org/2000/svg">
<path d="M132.43 69.017L113.786 76.519L99.6522 38.1792L118.299 30.6772H118.299C119.087 30.3062 119.459 29.3561 119.147 28.5146C118.834 27.673 117.944 27.235 117.124 27.5171L96.9637 35.6299C96.128 35.9673 95.7106 36.948 96.0326 37.8221L97.6738 42.2776H97.6729C95.5652 43.3234 93.3082 44.0042 90.9909 44.2923C87.6764 43.9844 84.4535 42.985 81.5148 41.3531C79.2901 40.1791 76.9208 39.3287 74.4751 38.8265C71.1361 38.8679 67.8554 39.7469 64.9093 41.3895C64.5958 41.0916 64.1888 40.9238 63.7648 40.9199H41.2649C40.7181 40.8587 40.1874 40.691 39.7002 40.4246L41.5954 36.1812C41.7805 35.7738 41.8012 35.3061 41.6549 34.8809C41.5094 34.4567 41.2063 34.1104 40.8154 33.919L21.2645 24.3431C20.4561 23.9662 19.5071 24.3343 19.1313 25.1719C18.7545 26.0085 19.0897 27.0069 19.8839 27.4154L37.973 36.2868L21.2778 73.4799L3.17829 64.6115C2.36618 64.213 1.39827 64.578 1.01678 65.4275C0.635282 66.2769 0.98467 67.2882 1.79772 67.6858L21.3571 77.2755C21.5724 77.384 21.8085 77.4393 22.0474 77.4403C22.6791 77.4383 23.2523 77.0545 23.5177 76.4557L25.0229 73.1061C27.8578 74.4045 30.787 75.7876 32.6849 76.5405C32.3176 78.4466 32.4706 80.4227 33.1259 82.243C33.5593 83.0846 34.21 83.7811 35.0041 84.2547C35.7983 84.7282 36.7048 84.9581 37.6178 84.9186C37.3506 85.9792 37.3752 87.097 37.6887 88.1439C38.0022 89.1908 38.5924 90.123 39.3913 90.8343C40.5188 91.6226 41.8841 91.9501 43.2279 91.7538C43.2638 92.1543 43.3441 92.5509 43.4659 92.9328C44.0504 94.6198 45.2922 95.9676 46.8834 96.6415C48.7494 97.3587 50.8166 97.2413 52.5985 96.3189C53.1972 97.9665 54.3964 99.2984 55.9347 100.022C58.3853 100.805 61.049 100.241 63.0142 98.5229C63.9132 100.306 65.3532 101.725 67.1088 102.559C67.7056 102.833 68.3515 102.973 69.004 102.972C71.5696 102.636 73.9276 101.328 75.6311 99.2952C76.8342 99.8822 78.1411 100.2 79.4678 100.228C81.1496 100.262 82.771 99.5733 83.9543 98.3243C84.9222 97.3801 85.672 96.2199 86.1508 94.9296C86.8637 95.1407 87.5993 95.2532 88.3406 95.267C90.0224 95.2995 91.6438 94.6119 92.8271 93.3628C93.8168 92.397 94.5779 91.2042 95.05 89.8782C95.6355 90.0321 96.236 90.1149 96.8395 90.1238H97.1813C99.2163 89.9837 101.123 89.0336 102.509 87.4708C104.642 85.2421 102.915 81.7939 101.591 79.8158C103.384 78.0675 105.513 76.7367 107.835 75.9118C108.376 75.7421 109.089 75.5695 109.871 75.3939L111.33 79.3541L111.331 79.3551C111.572 80.0092 112.175 80.4413 112.846 80.4413C113.047 80.4423 113.245 80.4039 113.431 80.3279L133.591 72.2152H133.592C134.006 72.0622 134.343 71.7406 134.527 71.3243C134.71 70.9079 134.724 70.4314 134.566 70.0032C134.408 69.575 134.091 69.2327 133.687 69.0531C133.283 68.8736 132.827 68.8716 132.422 69.0492L132.43 69.017ZM39.2698 81.24C37.9705 81.3841 36.6249 81.1838 36.454 80.7793C36.0272 79.2895 36.0272 77.703 36.454 76.2134H36.4672C37.4503 75.064 38.8733 74.4345 40.3475 74.4996C41.1152 74.7927 41.7129 75.4349 41.9717 76.2449C42.1964 76.8418 41.0112 79.1753 39.2698 81.24ZM44.2623 87.8285C43.3794 88.1778 42.4096 88.2123 41.506 87.9242C40.5041 87.126 41.1783 84.8323 41.522 83.9639C43.1698 82.193 44.4145 80.059 45.167 77.7179C46.0018 77.3795 46.9111 77.2947 47.7904 77.4752C48.4316 78.0484 48.9547 78.7519 49.3287 79.5431C48.0671 81.1888 45.4756 85.6895 44.2623 87.8285ZM52.8886 91.8221C52.8452 91.9129 52.8103 92.0076 52.7829 92.1053C51.662 92.8403 49.5119 93.8703 48.3483 93.3128C47.6458 93.0415 47.0801 92.4821 46.7827 91.7629C46.6354 91.2519 46.6977 90.7004 46.9536 90.2386C48.5523 87.2876 50.2935 84.4237 52.1709 81.6581C53.2701 80.6686 54.9074 80.708 55.9614 81.7489L57.8755 83.503L52.8886 91.8221ZM62.4706 94.3824C60.784 95.884 58.3742 97.1912 57.4885 96.7413C55.5442 95.7399 55.6934 94.2719 55.7774 93.8782V93.8299C55.7963 93.8013 55.8284 93.7904 55.8483 93.7618L60.8654 85.3914V85.3924C61.7143 85.8611 62.5085 86.4303 63.2318 87.0894C63.8088 87.5985 64.6993 88.4785 65.7172 89.5164L62.4706 94.3824ZM68.5161 99.2107C67.2101 98.5349 66.2044 97.3569 65.7087 95.9243L68.246 92.1249C69.9977 93.9669 71.7419 95.8364 72.8486 97.0273C71.4841 98.3592 69.5964 99.7089 68.5161 99.2107ZM97.0296 86.4411L97.0305 86.4421C96.1013 86.449 95.1863 86.1984 94.3798 85.715C94.3477 85.6923 94.3071 85.6864 94.274 85.6637C93.1522 84.9869 92.1276 84.1463 91.2305 83.1696C85.4712 77.1555 74.7826 68.429 74.3274 68.061C73.9629 67.7532 73.4945 67.6121 73.029 67.6683C72.5634 67.7246 72.1385 67.9732 71.8505 68.3599C71.5615 68.7467 71.434 69.238 71.4964 69.7234C71.5578 70.2088 71.8033 70.6488 72.1782 70.9428C72.2896 71.0306 83.1521 79.8991 88.7593 85.7547C89.6979 86.7373 90.7395 87.6065 91.8642 88.3465C91.613 89.2897 91.0918 90.1303 90.3703 90.7558C88.9331 92.2574 86.6289 91.3211 85.6128 90.8041C85.4627 90.6848 85.2965 90.59 85.1199 90.521L67.1478 74.0409C66.4216 73.375 65.3159 73.449 64.6784 74.2077C64.0401 74.9664 64.1118 76.1216 64.838 76.7876L82.9781 93.4205C82.6995 94.3222 82.1887 95.1263 81.5003 95.7429C79.8515 97.4715 77.0459 95.9886 76.3727 95.59C75.1545 94.269 67.9579 86.4728 65.5047 84.3063H65.5037C64.1987 83.0622 62.6642 82.1101 60.9938 81.5083L58.2865 79.0162H58.2855C56.6727 77.4594 54.393 76.9019 52.2865 77.5511C51.6727 76.3514 50.8218 75.3027 49.7897 74.4738C48.2137 73.6135 46.3696 73.4665 44.6858 74.0664C43.9531 72.5431 42.6386 71.4134 41.0662 70.9547C38.578 70.5413 36.053 71.4056 34.2815 73.2772C32.5402 72.5846 29.5165 71.158 26.5136 69.7945L38.2287 43.7118C39.1758 44.2101 40.2089 44.505 41.2664 44.58H59.0901C58.0277 45.1996 57.0201 45.9178 56.0816 46.7268C55.2496 47.7342 54.7029 48.9635 54.5037 50.2777C54.2544 51.728 53.6594 53.0905 52.7737 54.238C51.3572 55.9349 47.5912 60.4615 51.2439 64.2657C52.0796 65.0589 53.1826 65.4752 54.3112 65.4229C57.9798 65.347 63.6221 61.6887 68.9593 55.9951L98.0385 80.9273C99.0338 82.0254 99.7278 83.3839 100.047 84.8588C99.2736 85.7714 98.1933 86.3387 97.0308 86.4432L97.0296 86.4411ZM106.837 72.389C103.984 73.3855 101.372 75.0145 99.1777 77.1631L69.9365 52.075C69.2217 51.4594 68.1697 51.5353 67.5427 52.2477C60.1839 60.5814 54.5254 62.2696 53.7342 61.6755C53.2337 61.1497 52.38 60.2607 55.4292 56.635C56.6823 55.0584 57.5369 53.1779 57.9155 51.1674C58.0118 50.5054 58.2366 49.871 58.5756 49.3028C59.8617 47.959 70.1877 41.9172 74.0546 42.4488C76.1604 42.9214 78.2 43.6762 80.1219 44.6923C83.4968 46.5412 87.1984 47.6461 90.9983 47.9391C93.7462 47.654 96.4281 46.8884 98.9342 45.6769L108.61 71.9262C107.942 72.0732 107.316 72.2321 106.837 72.3879V72.389Z" fill="#0C7BF7"/>
</svg>
