<svg width="230" height="231" viewBox="0 0 230 231" fill="none" xmlns="http://www.w3.org/2000/svg">
<rect width="230" height="230" transform="translate(0 0.892578)" fill="white" style="mix-blend-mode:multiply"/>
<path d="M115 15.2666C58.9374 15.2666 14.3749 59.8291 14.3749 115.892C14.3749 171.954 58.9374 216.517 115 216.517C171.062 216.517 215.625 171.954 215.625 115.892C215.625 59.8291 171.062 15.2666 115 15.2666ZM115 202.142C67.5624 202.142 28.7499 163.329 28.7499 115.892C28.7499 68.4541 67.5624 29.6416 115 29.6416C162.437 29.6416 201.25 68.4541 201.25 115.892C201.25 163.329 162.437 202.142 115 202.142Z" fill="#E01644"/>
<path d="M153.812 166.204L115 127.392L76.1874 166.204L64.6874 154.704L103.5 115.892L64.6874 77.0791L76.1874 65.5791L115 104.392L153.812 65.5791L165.312 77.0791L126.5 115.892L165.312 154.704L153.812 166.204Z" fill="#E01644"/>
</svg>
