<svg width="105" height="106" viewBox="0 0 105 106" fill="none" xmlns="http://www.w3.org/2000/svg">
<path d="M74.2274 77.159C73.1129 76.975 72.0202 76.6643 70.9711 76.2312C69.1522 75.4805 67.5 74.3768 66.11 72.984L74.2274 77.159ZM74.2274 77.159L59.9862 91.4026C57.7637 93.6204 54.7523 94.8659 51.6126 94.8659C48.4729 94.8659 45.4614 93.6204 43.2389 91.4026L29.1586 77.3223C30.572 77.1715 31.9594 76.819 33.2778 76.2732C35.0965 75.5203 36.748 74.4146 38.137 73.02C38.1374 73.0195 38.1379 73.0191 38.1383 73.0186L51.6282 59.5287C51.7691 59.3989 51.9538 59.3266 52.1458 59.3266C52.3376 59.3266 52.5223 59.3988 52.6631 59.5285L66.109 72.9829L74.2274 77.159ZM59.9562 12.166L59.9564 12.1662L74.194 26.4038C73.0893 26.5895 72.0065 26.8999 70.9666 27.3307C69.1475 28.0843 67.496 29.1915 66.1081 30.5882C66.1075 30.5888 66.1069 30.5894 66.1063 30.59L52.6497 44.0465C52.6494 44.0468 52.6492 44.0471 52.6489 44.0473C52.5159 44.1795 52.3361 44.2536 52.1486 44.2536C51.9612 44.2536 51.7813 44.1795 51.6484 44.0474C51.6481 44.0471 51.6478 44.0468 51.6475 44.0465L38.1413 30.5375C38.1407 30.5369 38.1402 30.5364 38.1396 30.5358C36.7508 29.1411 35.0994 28.0354 33.2808 27.2826C31.9608 26.7362 30.5718 26.3835 29.1567 26.233L43.2121 12.166C43.2122 12.1659 43.2123 12.1658 43.2124 12.1657C44.3116 11.0661 45.6166 10.1939 47.053 9.59876C48.4895 9.00359 50.0292 8.69726 51.5841 8.69726C53.139 8.69726 54.6787 9.00359 56.1152 9.59876C57.5517 10.1939 58.8569 11.0663 59.9562 12.166ZM91.1951 43.4093L91.1954 43.4096C92.2958 44.5096 93.1678 45.8122 93.7626 47.2477C94.3577 48.6842 94.6641 50.2239 94.6641 51.7788C94.6641 53.3337 94.3577 54.8734 93.7626 56.3099C93.1674 57.7464 92.2951 59.0516 91.1954 60.1508L91.1951 60.1511L81.5344 69.8118C81.4937 69.8102 81.4529 69.8092 81.4121 69.8089H81.3995L76.706 69.8089C76.7055 69.8089 76.705 69.8089 76.7045 69.8089C74.7339 69.8036 72.8449 69.0209 71.448 67.6309C71.4478 67.6307 71.4475 67.6304 71.4473 67.6302L57.9876 54.1734C57.9876 54.1733 57.9875 54.1733 57.9875 54.1732C54.8458 51.0317 49.4523 51.0328 46.3089 54.1726L46.3081 54.1733L32.7997 67.6818C32.7991 67.6824 32.7985 67.6829 32.7979 67.6835C31.4015 69.0734 29.5133 69.8565 27.5431 69.8629H21.7559L21.728 69.8631C21.708 69.8634 21.688 69.8639 21.668 69.8646L11.9587 60.1553C11.9586 60.1551 11.9584 60.155 11.9583 60.1548C9.74083 57.9324 8.49547 54.9211 8.49547 51.7816C8.49547 48.6425 9.74055 45.6315 11.9576 43.4092C11.9579 43.4088 11.9583 43.4084 11.9587 43.408L21.6897 33.6956C21.7059 33.6962 21.722 33.6967 21.7382 33.697C21.7517 33.6973 21.7651 33.6975 21.7786 33.6975H27.5434C29.5137 33.7037 31.402 34.487 32.7982 35.8772C32.7986 35.8776 32.7991 35.878 32.7995 35.8785L46.3114 49.3818L46.3121 49.3825C47.8612 50.9288 49.9605 51.7973 52.1493 51.7973C54.338 51.7973 56.4374 50.9288 57.9865 49.3825L57.9872 49.3818L71.4473 35.9302C71.4475 35.93 71.4477 35.9299 71.4478 35.9297C72.8446 34.5397 74.7334 33.757 76.7038 33.7515H81.3995L81.417 33.7514C81.4562 33.7511 81.4952 33.7501 81.5343 33.7485L91.1951 43.4093Z" stroke="#0C7BF7" stroke-width="3.59129" stroke-linejoin="round"/>
</svg>
