<svg width="116" height="246" viewBox="0 0 116 246" fill="none" xmlns="http://www.w3.org/2000/svg">
<path d="M94.3703 40.356L94.2003 11.3946L79.6081 0L68.3424 7.46155L57.1857 0.25984L46.1126 7.59541L34.7378 0.270669L20.2468 11.8286L20.4158 40.7949L19.2248 40.8008C17.0216 40.8071 14.8415 41.2514 12.811 42.1078C10.7805 42.9642 8.93992 44.2158 7.39595 45.79L4.84092 48.3746C1.72427 51.5509 -0.0152887 55.8306 0.000101253 60.284L0.999511 229.24C1.01212 231.446 1.45841 233.627 2.31286 235.659C3.1673 237.692 4.41318 239.536 5.97933 241.086C7.54548 242.637 9.40121 243.863 11.4405 244.694C13.4799 245.526 15.6628 245.947 17.8647 245.934L99.3359 245.451C103.782 245.424 108.036 243.629 111.161 240.46C114.286 237.292 116.027 233.011 116 228.557L115.009 59.5901C114.97 55.1396 113.18 50.8841 110.028 47.7476L107.447 45.1935C104.277 42.0737 100.007 40.3322 95.5624 40.3471L94.3703 40.356ZM27.5198 15.3207L35.1898 9.19973L46.1686 16.2745L57.2368 8.94481L68.3935 16.1455L79.2593 8.94481L86.9666 14.9615L87.2378 60.9552L27.791 61.3066L27.5198 15.3207ZM10.007 53.4828L12.5571 50.8982C13.4331 50.0053 14.4774 49.2953 15.6294 48.8096C16.7813 48.3239 18.0181 48.072 19.268 48.0685L20.4581 48.0616L20.5377 61.3489L7.27114 61.4257L7.26426 60.2338C7.25758 57.7085 8.24397 55.2822 10.0099 53.4799L10.007 53.4828ZM108.749 228.598C108.679 231.097 107.664 233.476 105.909 235.255C104.154 237.033 101.79 238.078 99.2957 238.178L17.8293 238.662C16.5801 238.67 15.3416 238.431 14.1846 237.959C13.0276 237.487 11.9747 236.791 11.0862 235.912C10.1976 235.032 9.49076 233.986 9.00596 232.833C8.52117 231.68 8.26794 230.442 8.26073 229.191L7.31243 68.6943L107.805 68.0989L108.749 228.598ZM104.925 52.9198C106.713 54.7005 107.728 57.1156 107.75 59.6412L107.759 60.8342L94.4922 60.9109L94.4136 47.6236L95.6036 47.6167C98.125 47.6095 100.548 48.5975 102.347 50.3667L104.925 52.9198Z" fill="#0AC16C"/>
<path d="M18.0776 79.3535L17.2227 226.672L96.3098 226.204L97.1638 78.884L18.0776 79.3535ZM24.4347 219.362L25.3752 86.5759L89.9517 86.193L89.0132 218.981L24.4347 219.362Z" fill="#0AC16C"/>
<path d="M36.9276 50.5366L36.8844 43.2698L77.931 43.0267L77.9743 50.2934L36.9276 50.5366Z" fill="#0AC16C"/>
<path d="M36.8319 35.1187L36.7887 27.852L77.8354 27.6089L77.8786 34.8756L36.8319 35.1187Z" fill="#0AC16C"/>
<path d="M31.1289 117.56L31.0867 110.293L38.343 110.249L38.3842 117.517L31.1289 117.56Z" fill="#0AC16C"/>
<path d="M31.0423 103.022L31 95.7558L38.2563 95.7115L38.2995 102.98L31.0423 103.022Z" fill="#0AC16C"/>
</svg>
