<svg width="230" height="231" viewBox="0 0 230 231" fill="none" xmlns="http://www.w3.org/2000/svg">
<path d="M109.615 43.9549C110.569 44.7398 111.139 45.897 111.179 47.1309C111.219 48.3648 110.728 49.5566 109.83 50.4029C108.097 52.0284 108.011 54.7534 109.636 56.4864C111.264 58.2193 113.987 58.3057 115.72 56.6783C118.41 54.1336 119.878 50.5545 119.746 46.8508C119.613 43.1489 117.896 39.683 115.031 37.3342C113.192 36.1175 110.73 36.4898 109.333 38.1978C107.936 39.9058 108.057 42.3929 109.615 43.9551L109.615 43.9549Z" fill="#0C7BF7"/>
<path d="M128.402 47.2856C128.44 51.6495 127.133 55.9193 124.661 59.516C123.512 61.4408 124.036 63.9241 125.863 65.2232C127.69 66.5204 130.208 66.1981 131.647 64.4805C135.132 59.4469 136.999 53.471 136.999 47.3511C136.999 41.2293 135.132 35.2534 131.647 30.2197C130.188 28.6826 127.824 28.4389 126.081 29.644C124.339 30.8511 123.736 33.1482 124.661 35.0559C127.133 38.6522 128.44 42.9223 128.402 47.2863L128.402 47.2856Z" fill="#0C7BF7"/>
<path d="M141.853 72.8223C143.895 74.0313 146.531 73.3577 147.742 71.3178C152.037 64.037 154.303 55.7389 154.303 47.2874C154.303 38.8359 152.037 30.5378 147.742 23.257C146.445 21.4742 144.01 20.9618 142.104 22.0691C140.198 23.1783 139.44 25.5483 140.348 27.5557C143.856 33.5085 145.706 40.2926 145.706 47.2009C145.706 54.1112 143.856 60.8933 140.348 66.8462C139.739 67.8345 139.555 69.0262 139.839 70.1508C140.121 71.2773 140.849 72.2387 141.852 72.8221L141.853 72.8223Z" fill="#0C7BF7"/>
<path d="M34.3906 77.3814H68.7801C69.92 77.3814 71.0139 76.9285 71.8199 76.1225C72.6259 75.3165 73.0788 74.2226 73.0788 73.0827V47.2906C73.0788 46.1507 72.6259 45.0568 71.8199 44.2508C71.0139 43.4449 69.92 42.9919 68.7801 42.9919H34.3906C32.0167 42.9919 30.0919 44.9168 30.0919 47.2906V73.0827C30.0919 74.2226 30.5448 75.3165 31.3508 76.1225C32.1568 76.9285 33.2507 77.3814 34.3906 77.3814ZM38.6893 51.5893H64.4814V68.784H38.6893V51.5893Z" fill="#0C7BF7"/>
<path d="M0.00109183 17.1974V111.768C-0.0507233 116.345 1.74361 120.749 4.97922 123.985C8.21472 127.221 12.6191 129.015 17.1958 128.963H61.2782C57.3672 137.776 58.4188 146.522 64.5444 152.606C68.6934 156.647 75.0342 158.344 82.5989 156.024C84.1246 173.606 103.812 182.117 120.47 164.385C120.47 166.535 120.297 168.684 120.147 170.639C118.493 191.165 136.031 203.223 138.202 205.931H138.204C140.052 209.798 140.052 214.294 138.204 218.161C137.48 219.925 138.004 221.955 139.493 223.147C140.052 223.619 149.401 230.905 167.091 230.905V230.907C178.442 230.669 189.631 228.163 199.997 223.534C200.143 223.492 200.281 223.427 200.406 223.34C227.831 208.253 229.98 190.864 229.98 190.133C230.074 189.158 229.831 188.179 229.293 187.36C229.293 187.36 224.415 179.688 221.985 163.567C220.824 155.722 222.523 128.232 223.64 110.047C224.478 96.3339 224.908 89.0703 224.714 86.5987C224.027 78.667 217.815 69.2541 211.108 66.0073C205.478 63.2784 185.532 56.4214 176.268 52.1439V17.1958C176.32 12.6189 174.525 8.21477 171.29 4.97921C168.054 1.7437 163.65 -0.0504924 159.073 0.00109183H17.197C12.6201 -0.0507233 8.21594 1.74361 4.98038 4.97921C1.74488 8.21472 -0.0493192 12.6191 0.002265 17.1958L0.00109183 17.1974ZM77.3774 148.31C69.7685 149.256 63.1495 141.196 70.9294 128.966H101.6C90.2735 144.936 81.0738 147.838 77.3774 148.31ZM99.8804 165.355C96.9097 165.019 94.271 163.297 92.7667 160.71C91.2967 158.008 90.7517 154.898 91.22 151.856L91.3485 151.599C98.3994 146.892 105.32 139.196 111.982 128.966H112.756C116.346 136.02 118.722 143.628 119.785 151.469C110.155 164.881 104.331 166.042 99.9249 165.332L99.8804 165.355ZM174.334 119.637C175.051 119.172 175.606 118.497 175.925 117.702C179.692 113.129 182.637 107.936 184.629 102.356C185.364 100.101 184.132 97.6771 181.878 96.9404C180.692 96.5317 179.383 96.6621 178.3 97.2993C177.218 97.9364 176.468 99.013 176.247 100.251V61.5626C184.113 64.873 203.502 71.9217 207.347 73.7719C211.195 75.6199 215.709 82.3692 216.118 87.3547C216.29 89.3103 215.646 99.5851 215.043 109.535C213.753 130.297 212.163 156.134 213.473 164.858C214.569 173.762 217.164 182.417 221.148 190.456C220.138 194.002 215.58 205.158 196.472 215.668C169.519 226.91 153.184 221.021 147.32 217.818C148.901 212.337 148.293 206.457 145.621 201.417C143.107 197.119 127.373 187.897 128.707 171.154V171.155C130.599 153.846 126.981 136.38 118.367 121.246C113.667 113.24 108.303 105.641 102.333 98.5288C94.7682 89.1793 93.4997 86.9877 95.8848 82.9037C100.7 74.6709 116.283 78.8621 125.116 85.955C136.487 95.0476 147.791 121.118 160.365 128.447C175.261 137.173 186.996 135.411 187.491 135.411C189.865 135.031 191.481 132.799 191.101 130.425C190.721 128.05 188.489 126.434 186.115 126.814C180.723 127.117 175.34 126.108 170.425 123.87C171.607 122.709 172.939 121.268 174.336 119.635L174.334 119.637ZM167.65 17.2003V114.223C165.715 116.372 163.888 118.307 162.599 119.554C152.712 111.344 142.245 88.6901 130.509 79.2964C117.741 69.066 96.4837 64.9378 88.468 78.6305C82.8797 88.2163 88.468 95.1806 95.6471 103.993C99.9803 109.218 104.012 114.688 107.726 120.37H17.1978C14.9026 120.424 12.6842 119.535 11.0588 117.912C9.43526 116.286 8.54673 114.068 8.60047 111.773V17.2016C8.54674 14.9064 9.43526 12.688 11.0588 11.0626C12.6842 9.43905 14.9026 8.55052 17.1978 8.60427H159.054C161.35 8.55053 163.568 9.43905 165.193 11.0626C166.817 12.688 167.705 14.9064 167.652 17.2016L167.65 17.2003Z" fill="#0C7BF7"/>
</svg>
