<svg width="169" height="70" viewBox="0 0 169 70" fill="none" xmlns="http://www.w3.org/2000/svg">
    <path
        d="M84.3633 14.8662V46.6388H92.2322V37.3135H99.6533C101.719 37.3577 103.762 36.8737 105.592 35.9065C107.255 35.017 108.621 33.6531 109.521 31.9847C110.458 30.2089 110.929 28.221 110.891 26.2095C111.024 23.2115 110.02 20.275 108.083 17.9992C106.209 15.9065 103.466 14.8628 99.8522 14.8682L84.3633 14.8662ZM97.8992 31.1959H92.2333V20.9848H98.1442C98.7986 20.9314 99.4568 21.0229 100.073 21.253C100.688 21.4831 101.247 21.8462 101.709 22.317C102.559 23.4084 102.977 24.7799 102.882 26.1651C102.953 27.5122 102.495 28.8331 101.607 29.8415C101.117 30.3166 100.534 30.6826 99.8955 30.9161C99.2568 31.1496 98.5768 31.2452 97.8992 31.1969V31.1959ZM120.125 14.8662L108.106 46.6388H116.315L119.1 39.4345H129.6L132.431 46.6388H140.639L128.621 14.8662H120.125ZM128.525 33.5623H120.169L124.325 22.5099L128.525 33.5623ZM149.334 34.946V46.6388H157.249V34.949L168.531 14.8692H160.331L153.295 28.0427L146.257 14.8662H138.057L149.333 34.949"
        fill="#F9F9F9" />
    <path
        d="M43.3449 65.3713C43.9014 64.6235 44.1707 63.6974 44.1029 62.7645C44.1808 61.864 43.9134 60.9677 43.3559 60.2607C43.0695 59.9848 42.7293 59.7722 42.3571 59.6363C41.9849 59.5005 41.5888 59.4445 41.1939 59.4718C40.7665 59.4656 40.3412 59.5339 39.9369 59.6739C39.5707 59.8132 39.2358 60.0251 38.9519 60.297L38.8729 59.6112H37.9219V69.08H39.0369V65.6379C39.6712 66.0632 40.4208 66.2789 41.1819 66.255C41.5846 66.2798 41.9876 66.2136 42.3618 66.0613C42.736 65.9089 43.0718 65.6743 43.3449 65.3743V65.3713ZM42.4789 64.7198C42.2775 64.9411 42.0285 65.1129 41.7512 65.222C41.4738 65.3311 41.1755 65.3745 40.8789 65.349C40.205 65.3757 39.5459 65.1449 39.0329 64.7027V61.1677C39.2709 60.9084 39.5616 60.7042 39.8851 60.5691C40.2085 60.434 40.5571 60.3712 40.9069 60.3849C41.1974 60.3547 41.491 60.3886 41.7673 60.4843C42.0435 60.5801 42.2959 60.7354 42.5069 60.9394C42.8712 61.4747 43.0395 62.1214 42.9829 62.7685C43.0396 63.46 42.8596 64.1503 42.4729 64.7239L42.4789 64.7198ZM50.2289 65.3713L50.3129 66.1146H51.2469V61.8605C51.2773 61.5253 51.2319 61.1874 51.1141 60.8724C50.9963 60.5575 50.8092 60.2737 50.5669 60.0425C49.966 59.6179 49.2383 59.4159 48.5069 59.4709C47.7243 59.454 46.9452 59.5799 46.2069 59.8425V60.7748C46.8978 60.5372 47.6231 60.4174 48.3529 60.4202C48.7383 60.4057 49.1236 60.4521 49.4949 60.5576C49.6103 60.5916 49.7178 60.6486 49.8111 60.7253C49.9044 60.802 49.9815 60.8967 50.0379 61.004C50.1487 61.2755 50.1995 61.5681 50.1869 61.8615V62.2655H47.9479C47.2795 62.211 46.6141 62.4018 46.0739 62.8028C45.8689 62.9904 45.7079 63.2217 45.6022 63.4799C45.4966 63.738 45.449 64.0166 45.4629 64.2956C45.4475 64.5722 45.4981 64.8484 45.6103 65.1011C45.7225 65.3539 45.8932 65.5757 46.1079 65.748C46.5771 66.0971 47.1496 66.2751 47.7319 66.253C48.2308 66.2659 48.7283 66.1946 49.2039 66.0419C49.5946 65.9073 49.9467 65.6777 50.2289 65.3733V65.3713ZM47.9759 63.124H50.1899V64.3875C49.9215 64.7003 49.5865 64.9477 49.21 65.1111C48.8335 65.2745 48.4252 65.3496 48.0159 65.3308C47.6384 65.3555 47.2616 65.2722 46.9289 65.0905C46.8036 65.0011 46.7037 64.8801 46.6392 64.7396C46.5746 64.5991 46.5476 64.4439 46.5609 64.2896C46.547 64.1259 46.5699 63.9612 46.6277 63.8077C46.6856 63.6542 46.7769 63.5158 46.8949 63.4028C47.2132 63.1871 47.5951 63.0883 47.9769 63.123L47.9759 63.124ZM53.3539 59.6082H52.1989L55.0409 66.0459C54.9023 66.3646 54.7436 66.6739 54.5659 66.9721C54.4518 67.1566 54.2963 67.3113 54.1119 67.4236C53.8925 67.54 53.6464 67.5951 53.3989 67.5832C53.1158 67.586 52.8343 67.5396 52.5669 67.4458V68.3487C52.9255 68.4744 53.3034 68.5343 53.6829 68.5255C54.081 68.5366 54.4727 68.4226 54.8039 68.1993C55.1304 67.9602 55.4055 67.6568 55.6129 67.3074C55.8893 66.8312 56.1332 66.3366 56.3429 65.8268L59.0499 59.6062H57.9059L55.5969 64.8491L53.3549 59.6062L53.3539 59.6082ZM69.0899 66.1146H70.1899V61.7918C70.2405 61.1605 70.0477 60.5338 69.6519 60.0425C69.4329 59.8385 69.1745 59.6824 68.893 59.5841C68.6115 59.4857 68.3128 59.4472 68.0159 59.4709C67.5432 59.4627 67.0732 59.5421 66.6289 59.7052C66.2293 59.8625 65.8577 60.0845 65.5289 60.3627C65.4023 60.0801 65.1878 59.8471 64.9179 59.6991C64.5752 59.5335 64.1975 59.4552 63.8179 59.4709C62.9625 59.4815 62.1375 59.793 61.4849 60.3516L61.4169 59.6082H60.4079V66.1146H61.5079V61.2151C61.7716 60.9613 62.0759 60.7544 62.4079 60.603C62.7287 60.4573 63.0761 60.3813 63.4279 60.3799C63.6187 60.3566 63.8123 60.3757 63.9951 60.4359C64.1778 60.496 64.3453 60.5959 64.4859 60.7283C64.7083 61.0863 64.8074 61.5084 64.7679 61.9292V66.1146H65.8159V61.9009C65.8188 61.6338 65.7923 61.3672 65.7369 61.106C65.9602 60.8629 66.2375 60.6766 66.5459 60.5627C66.8739 60.44 67.2211 60.3781 67.5709 60.3799C67.9876 60.3378 68.4045 60.4585 68.7359 60.7172C68.8715 60.8799 68.973 61.0687 69.0344 61.2721C69.0957 61.4756 69.1156 61.6895 69.0929 61.9009V66.1146H69.0899ZM73.1839 64.5592C72.9839 64.199 72.875 63.7945 72.8669 63.3816H77.6279V62.1635C77.6438 61.807 77.5889 61.4508 77.4665 61.1161C77.344 60.7813 77.1565 60.4746 76.9149 60.2142C76.6361 59.9536 76.3075 59.7532 75.9493 59.6253C75.5912 59.4975 75.2109 59.445 74.8319 59.4709C74.4041 59.4374 73.9741 59.499 73.5723 59.6511C73.1705 59.8033 72.8065 60.0423 72.5059 60.3516C71.9606 61.057 71.6906 61.94 71.7469 62.8331C71.7082 63.3 71.764 63.7699 71.911 64.2143C72.058 64.6587 72.2931 65.0681 72.6019 65.4177C73.322 66.025 74.2485 66.3243 75.1839 66.252C75.8811 66.2724 76.5748 66.1458 77.2209 65.8803V65.0056C76.6434 65.2394 76.026 65.3561 75.4039 65.349C74.9215 65.3656 74.4397 65.3018 73.9779 65.1602C73.6501 65.0606 73.3671 64.8484 73.1779 64.5602L73.1839 64.5592ZM73.3079 60.9061C73.5143 60.7099 73.7604 60.5613 74.0292 60.4704C74.298 60.3796 74.5831 60.3487 74.8649 60.3799C75.3513 60.3379 75.8348 60.4898 76.2119 60.803C76.3633 60.9684 76.4797 61.1632 76.5538 61.3756C76.628 61.5881 76.6582 61.8136 76.6429 62.0383V62.5756H72.8679C72.8199 61.9844 72.9757 61.3946 73.3089 60.9061H73.3079ZM84.0589 66.1146H85.1729V61.8605C85.228 61.2066 85.029 60.5568 84.6179 60.0486C84.3737 59.8372 84.0903 59.6772 83.7841 59.578C83.4779 59.4788 83.1552 59.4424 82.8349 59.4709C81.9245 59.4555 81.0383 59.7676 80.3349 60.3516L80.2669 59.6082H79.2599V66.1146H80.3739V61.204C80.6354 60.9427 80.9457 60.7367 81.2869 60.598C81.6448 60.453 82.0272 60.3793 82.4129 60.3809C82.7522 60.364 83.0915 60.4123 83.4129 60.5233C83.6335 60.608 83.8128 60.7761 83.9129 60.9919C84.0275 61.2803 84.0783 61.5906 84.0619 61.9009V66.1146H84.0589ZM87.4429 59.6082H86.4639V60.5H87.4429V64.3027C87.4101 64.8293 87.5852 65.3475 87.9299 65.744C88.1212 65.9215 88.3463 66.0578 88.5914 66.1446C88.8366 66.2314 89.0967 66.2669 89.3559 66.249C89.7498 66.2576 90.1419 66.1918 90.5119 66.055V65.2087C90.2642 65.2947 90.0047 65.341 89.7429 65.346C89.4167 65.3786 89.0901 65.2891 88.8249 65.0945C88.7241 64.9803 88.6482 64.8459 88.6024 64.7C88.5565 64.5542 88.5417 64.4002 88.5589 64.2481V60.497H90.2689L90.3369 59.6052H88.5589V57.6609L87.4429 58.0043V59.6082ZM100.35 63.9138C100.456 64.0564 100.508 64.2327 100.497 64.4108C100.513 64.549 100.488 64.6889 100.426 64.8131C100.364 64.9372 100.267 65.0401 100.147 65.1087C99.7525 65.2566 99.3317 65.3189 98.9119 65.2915C98.2359 65.2979 97.5639 65.1858 96.9259 64.9602V65.949C97.2352 66.0538 97.5536 66.1285 97.8769 66.1722C98.2687 66.2255 98.6636 66.2521 99.0589 66.252C100.764 66.252 101.613 65.6349 101.613 64.3996C101.627 64.0794 101.554 63.7613 101.403 63.4795C101.243 63.2246 101.019 63.0175 100.753 62.8796C100.355 62.6719 99.9378 62.5054 99.5069 62.3827C99.0199 62.2282 98.6749 62.114 98.4839 62.0342C98.3138 61.9722 98.1607 61.8704 98.0369 61.7373C97.9227 61.6004 97.8657 61.424 97.8779 61.2454C97.8665 61.1156 97.8953 60.9855 97.9601 60.8728C98.0249 60.7601 98.1226 60.6705 98.2399 60.6162C98.6321 60.4694 99.0504 60.4072 99.4679 60.4334C100.027 60.4392 100.582 60.5378 101.11 60.7253V59.7365C100.521 59.556 99.9083 59.4671 99.2929 59.4729C98.6215 59.4216 97.9508 59.5815 97.3729 59.9304C97.17 60.0828 97.008 60.2839 96.9013 60.5154C96.7946 60.7469 96.7468 61.0016 96.7619 61.2565C96.7482 61.5781 96.8292 61.8966 96.9949 62.1716C97.149 62.4058 97.3615 62.595 97.6109 62.72C97.9589 62.8864 98.3166 63.0314 98.6819 63.1543L99.0499 63.2745C99.3469 63.3649 99.6382 63.4739 99.9219 63.6007C100.087 63.6702 100.234 63.7777 100.351 63.9149L100.35 63.9138ZM109.414 62.8614C109.414 60.6031 108.34 59.4729 106.192 59.4709C104.044 59.4688 102.97 60.599 102.971 62.8614C102.902 63.7773 103.182 64.6851 103.752 65.4005C104.448 65.9524 105.307 66.2524 106.192 66.2524C107.077 66.2524 107.936 65.9524 108.632 65.4005C109.203 64.6856 109.483 63.7775 109.414 62.8614ZM107.814 64.7137C107.353 65.0866 106.78 65.2898 106.189 65.2898C105.598 65.2898 105.025 65.0866 104.564 64.7137C104.248 64.1482 104.083 63.5097 104.084 62.8605C104.085 62.2112 104.253 61.5734 104.571 61.0091C105.029 60.6355 105.6 60.4317 106.189 60.4317C106.778 60.4317 107.35 60.6355 107.808 61.0091C108.126 61.5733 108.294 62.2112 108.295 62.8605C108.296 63.5098 108.131 64.1483 107.815 64.7137H107.814ZM112.155 56.864H111.039V64.7137C111 65.1369 111.128 65.5586 111.396 65.8864C111.536 66.015 111.701 66.1137 111.88 66.1765C112.059 66.2394 112.249 66.265 112.438 66.252C112.738 66.2601 113.037 66.2136 113.321 66.1146V65.2228C113.122 65.2782 112.916 65.3051 112.71 65.3026C112.631 65.3097 112.552 65.2996 112.478 65.2729C112.403 65.2462 112.335 65.2036 112.279 65.148C112.18 64.9811 112.137 64.787 112.155 64.5936V56.863V56.864ZM115.328 59.6082H114.208V63.725C114.161 64.4046 114.372 65.0768 114.797 65.6056C115.027 65.8318 115.302 66.0063 115.603 66.1177C115.905 66.2291 116.227 66.2748 116.547 66.252C117.012 66.2544 117.473 66.173 117.91 66.0116C118.32 65.8644 118.703 65.6479 119.042 65.3713L119.11 66.1146H120.119V59.6082H119.003V64.5259C118.742 64.7856 118.432 64.9896 118.092 65.1258C117.735 65.2759 117.352 65.3518 116.965 65.349C116.517 65.3857 116.073 65.2464 115.725 64.9602C115.58 64.8013 115.469 64.6133 115.4 64.4086C115.331 64.2039 115.306 63.9868 115.325 63.7714V59.6082H115.328ZM122.461 59.6082H121.482V60.5H122.461V64.3027C122.444 64.5635 122.479 64.825 122.562 65.0723C122.646 65.3196 122.777 65.5479 122.948 65.744C123.139 65.9215 123.364 66.0579 123.609 66.1447C123.855 66.2315 124.115 66.267 124.374 66.249C124.768 66.2573 125.16 66.1915 125.53 66.055V65.2087C125.28 65.2953 125.018 65.3417 124.754 65.346C124.428 65.3767 124.102 65.2874 123.836 65.0945C123.738 64.9789 123.664 64.8441 123.619 64.6985C123.575 64.5529 123.56 64.3996 123.577 64.2481V60.497H125.285L125.353 59.6052H123.577V57.6609L122.461 58.0043V59.6082ZM127.771 58.0871H129.011V57.058H127.771V58.0871ZM128.993 66.1146V59.6082H126.993L126.886 60.5H127.876V66.1146H128.993ZM137.078 62.8614C137.078 60.6031 136.004 59.4729 133.856 59.4709C131.708 59.4688 130.636 60.599 130.641 62.8614C130.572 63.7775 130.852 64.6856 131.423 65.4005C132.117 65.9524 132.976 66.2524 133.859 66.2524C134.743 66.2524 135.601 65.9524 136.296 65.4005C136.867 64.6856 137.147 63.7775 137.078 62.8614ZM135.478 64.7137C135.018 65.0875 134.446 65.2912 133.855 65.2912C133.265 65.2912 132.693 65.0875 132.233 64.7137C131.864 64.1715 131.693 63.5169 131.748 62.8614C131.691 62.2048 131.865 61.5489 132.24 61.0091C132.697 60.6355 133.268 60.4317 133.856 60.4317C134.444 60.4317 135.014 60.6355 135.472 61.0091C135.844 61.5496 136.017 62.2054 135.959 62.8614C136.016 63.5163 135.846 64.1709 135.479 64.7137H135.478ZM143.499 66.1146H144.615V61.8605C144.67 61.2065 144.47 60.5566 144.059 60.0486C143.815 59.8372 143.531 59.6772 143.225 59.578C142.919 59.4788 142.596 59.4424 142.276 59.4709C141.365 59.4554 140.479 59.7675 139.776 60.3516L139.708 59.6082H138.699V66.1146H139.815V61.204C140.075 60.9425 140.385 60.7364 140.726 60.598C141.084 60.4532 141.466 60.3795 141.852 60.3809C142.191 60.3639 142.53 60.4122 142.852 60.5233C143.072 60.6083 143.251 60.7762 143.352 60.9919C143.466 61.2805 143.516 61.5907 143.499 61.9009V66.1146ZM149.765 63.9138C149.869 64.0575 149.921 64.233 149.912 64.4108C149.926 64.5488 149.901 64.6881 149.839 64.812C149.777 64.9358 149.681 65.0389 149.562 65.1087C149.166 65.2563 148.743 65.3186 148.322 65.2915C147.647 65.2973 146.977 65.1852 146.34 64.9602V65.949C146.65 66.0536 146.968 66.1283 147.292 66.1722C147.684 66.2255 148.079 66.2521 148.474 66.252C150.179 66.252 151.028 65.6349 151.028 64.3996C151.042 64.0794 150.969 63.7613 150.818 63.4795C150.658 63.2246 150.434 63.0175 150.168 62.8796C149.77 62.6728 149.352 62.5063 148.922 62.3827C148.435 62.2282 148.09 62.114 147.899 62.0342C147.728 61.9735 147.575 61.8715 147.452 61.7373C147.337 61.6007 147.28 61.4241 147.293 61.2454C147.282 61.1156 147.31 60.9855 147.375 60.8728C147.44 60.7601 147.538 60.6705 147.655 60.6162C148.047 60.4687 148.465 60.4064 148.883 60.4334C149.442 60.4397 149.997 60.5383 150.525 60.7253V59.7365C149.936 59.5561 149.323 59.4672 148.708 59.4729C148.036 59.4216 147.366 59.5815 146.788 59.9304C146.585 60.0826 146.423 60.2836 146.316 60.5152C146.209 60.7468 146.161 61.0016 146.177 61.2565C146.163 61.5781 146.244 61.8966 146.41 62.1716C146.564 62.4058 146.776 62.5949 147.026 62.72C147.374 62.8864 147.732 63.0314 148.097 63.1543L148.459 63.2745C148.758 63.3652 149.051 63.4742 149.337 63.6007C149.502 63.6702 149.649 63.7778 149.766 63.9149"
        fill="#F9F9F9" />
    <path
        d="M43.0782 41.5272V46.9074H75.3902V38.0113H58.4182C59.2669 36.7648 60.2422 35.6112 61.3282 34.5693C62.4662 33.4717 64.0532 32.0386 66.0892 30.2697L67.2952 29.1951C69.5659 27.2906 71.5411 25.0532 73.1552 22.5573C74.3847 20.4395 75.0115 18.0198 74.9662 15.5651C74.9662 10.6424 73.5568 6.81716 70.7382 4.08949C67.9195 1.36181 63.8605 -0.00134567 58.5612 9.96795e-07C56.0974 0.00227336 53.638 0.206971 51.2072 0.612064C48.9691 0.954513 46.7697 1.51741 44.6402 2.29271V12.2644C48.1753 10.7683 51.9599 9.96489 55.7922 9.89699C60.8082 9.89699 63.3162 11.8581 63.3162 15.7802C63.3479 17.01 63.1181 18.2324 62.6422 19.3647C62.1431 20.4456 61.4589 21.429 60.6212 22.2695C59.7218 23.2014 58.2068 24.649 56.0762 26.6125L54.5762 27.973C51.6428 30.6542 49.2762 32.9849 47.4762 34.9652C45.6973 36.9226 44.2146 39.1349 43.0762 41.5302"
        fill="#F9F9F9" />
    <path
        d="M35.6878 39.306C38.5598 35.6509 39.9972 30.1252 40 22.7289C40 14.8817 38.3722 9.13064 35.1168 5.47558C31.8613 1.82051 26.8238 -0.00467698 20.0041 8.99996e-06C13.1836 8.99996e-06 8.14321 1.8252 4.88316 5.47558C1.6231 9.12595 -0.00459875 14.8771 9.75841e-06 22.7289C9.75841e-06 30.039 1.39309 35.5061 4.17939 39.1303C6.9657 42.7544 11.2517 44.8209 17.0372 45.3298C17.1699 52.818 20.2668 56.5612 26.3279 56.5593C28.3064 56.5751 30.278 56.3208 32.1899 55.803V51.0823C30.6348 51.5352 29.0253 51.7656 27.4077 51.767C26.7026 51.8521 25.9876 51.7731 25.317 51.5359C24.6463 51.2986 24.0375 50.9094 23.5366 50.3977C22.6902 48.8766 22.3054 47.1348 22.4305 45.3917C28.4022 44.9859 32.8264 42.9564 35.703 39.3032L35.6878 39.306ZM32.9324 12.2248C34.0767 15.6001 34.5993 19.1609 34.4739 22.7289C34.5999 26.2996 34.0774 29.8634 32.9324 33.2414C32.0818 35.6503 30.4068 37.6673 28.2137 38.9236C25.663 40.1944 22.8407 40.7979 20.0027 40.6795C17.1624 40.7986 14.3378 40.195 11.7849 38.9236C9.59176 37.6693 7.91838 35.6513 7.0731 33.2414C5.92109 29.865 5.39561 26.3004 5.5233 22.7289C5.39623 19.1602 5.9217 15.5985 7.0731 12.2248C7.91849 9.815 9.59185 7.79701 11.7849 6.54257C14.3383 5.27309 17.1629 4.67152 20.0027 4.79236C22.8398 4.6724 25.6616 5.27396 28.2124 6.54257C30.4059 7.79861 32.0814 9.81568 32.9324 12.2248Z"
        fill="#F9F9F9" />
    <path fill-rule="evenodd" clip-rule="evenodd"
        d="M155.502 57.0782C155.624 57.0782 155.889 56.9964 155.991 57.0368C156.05 57.0579 156.112 57.0648 156.174 57.057C156.195 57.0984 156.274 57.057 156.315 57.057H156.458C156.458 57.0598 156.458 57.0625 156.46 57.065C156.461 57.0675 156.462 57.0698 156.464 57.0717C156.466 57.0736 156.468 57.075 156.471 57.076C156.474 57.0769 156.476 57.0774 156.479 57.0773H156.5C156.593 57.1101 156.688 57.1374 156.784 57.1591C156.805 57.1591 156.784 57.1792 156.805 57.1792C156.84 57.188 156.874 57.202 156.905 57.2207C156.969 57.2461 157.036 57.2601 157.105 57.2621L157.288 57.3237C157.309 57.3237 157.329 57.3439 157.348 57.3439C157.369 57.3641 157.39 57.3641 157.431 57.3641C157.5 57.3865 157.566 57.4138 157.631 57.4459C157.691 57.4661 157.731 57.4873 157.793 57.5075C157.855 57.5277 157.893 57.5691 157.955 57.5893C158.114 57.642 158.27 57.7038 158.423 57.7742C158.444 57.7742 158.423 57.7943 158.444 57.7943C158.463 57.8043 158.483 57.8112 158.504 57.8145L158.525 57.856C158.546 57.856 158.566 57.8358 158.566 57.856C158.585 57.8762 158.606 57.9176 158.626 57.9176C158.647 57.9378 158.686 57.9176 158.707 57.9378C158.728 57.9378 158.707 57.958 158.728 57.958C158.747 57.9677 158.767 57.9745 158.788 57.9782C158.809 57.9782 158.829 58.0196 158.85 58.0196C158.85 58.0196 158.889 57.9994 158.889 58.0196L158.91 58.061C158.939 58.0575 158.967 58.0647 158.991 58.0812C159.012 58.1014 159.033 58.1428 159.074 58.163C159.095 58.1832 159.155 58.2044 159.174 58.2246C159.193 58.2448 159.195 58.2862 159.213 58.2862C159.296 58.3478 159.437 58.4498 159.538 58.5125C159.555 58.531 159.576 58.5452 159.6 58.5538C159.649 58.5779 159.696 58.6053 159.741 58.6357C159.827 58.7197 159.909 58.8088 159.985 58.9023C160.085 59.0033 160.23 59.1043 160.331 59.2053C160.35 59.2255 160.391 59.2467 160.412 59.2669C160.472 59.3285 160.493 59.4103 160.553 59.4689C160.574 59.4891 160.594 59.4891 160.615 59.5103C160.636 59.5517 160.675 59.572 160.715 59.6113C160.769 59.6737 160.816 59.7413 160.856 59.8133C160.897 59.8749 160.956 59.9366 160.999 59.9982C161.02 60.0184 161.041 60.0184 161.059 60.0396C161.077 60.0608 161.08 60.0598 161.08 60.081C161.101 60.1012 161.121 60.1012 161.142 60.1224V60.1638C161.198 60.2242 161.246 60.2921 161.283 60.3658C161.283 60.386 161.325 60.4072 161.345 60.4072V60.489C161.348 60.4889 161.35 60.4893 161.353 60.4903C161.356 60.4912 161.358 60.4927 161.36 60.4946C161.362 60.4965 161.363 60.4987 161.364 60.5013C161.365 60.5038 161.366 60.5065 161.366 60.5092C161.366 60.5294 161.406 60.5708 161.426 60.591C161.447 60.6325 161.486 60.6526 161.507 60.7142V60.7557C161.528 60.7759 161.528 60.7759 161.528 60.7971C161.528 60.8183 161.549 60.8385 161.569 60.8587C161.569 60.8613 161.569 60.8639 161.57 60.8663C161.571 60.8688 161.572 60.871 161.574 60.8729C161.576 60.8748 161.578 60.8763 161.58 60.8773C161.583 60.8784 161.585 60.8789 161.588 60.8789C161.609 60.9203 161.609 60.9799 161.63 61.0223C161.633 61.0222 161.635 61.0226 161.638 61.0236C161.64 61.0245 161.643 61.0259 161.645 61.0278C161.647 61.0297 161.648 61.032 161.649 61.0345C161.65 61.037 161.651 61.0398 161.651 61.0425C161.651 61.0627 161.651 61.1243 161.672 61.1435C161.699 61.1882 161.719 61.2365 161.732 61.2869C161.757 61.3255 161.777 61.3669 161.792 61.4101C161.796 61.4538 161.81 61.496 161.833 61.5334C161.861 61.5773 161.881 61.6258 161.893 61.6768L161.955 61.8C162.048 62.0283 162.129 62.2613 162.199 62.4979C162.202 62.4979 162.204 62.4984 162.206 62.4995C162.209 62.5005 162.211 62.502 162.213 62.5039C162.215 62.5058 162.216 62.508 162.217 62.5105C162.218 62.5129 162.218 62.5155 162.218 62.5181C162.239 62.5797 162.239 62.6413 162.259 62.7029V62.7444H162.28C162.331 62.9248 162.358 63.1113 162.361 63.2989C162.382 63.4221 162.361 63.5453 162.382 63.6685C162.408 63.7936 162.442 63.917 162.482 64.0382C162.503 64.2028 162.503 64.4482 162.522 64.6543C162.549 64.8446 162.556 65.0372 162.543 65.2289C162.543 65.2491 162.503 65.2492 162.503 65.2492C162.503 65.2492 162.522 65.2906 162.503 65.2906H162.482C162.461 65.332 162.482 65.3916 162.482 65.4138C162.482 65.436 162.461 65.4138 162.461 65.434C162.438 65.4837 162.41 65.5316 162.38 65.5774C162.359 65.5976 162.318 65.5976 162.28 65.6188C162.259 65.6188 162.239 65.6602 162.239 65.6804C162.199 65.7006 162.179 65.7006 162.139 65.7218C162.063 65.7594 161.98 65.7804 161.895 65.7834C161.876 65.7834 161.855 65.7632 161.876 65.7632C161.763 65.7899 161.646 65.7968 161.53 65.7834C161.392 65.7391 161.267 65.6615 161.165 65.5572C161.123 65.5158 161.043 65.4562 161.022 65.3926C160.981 65.2916 161.001 65.1663 160.96 65.0229C161.001 64.8972 161.009 64.7626 160.981 64.633C160.96 64.2281 160.884 63.8278 160.757 63.4433C160.754 63.4433 160.752 63.4427 160.749 63.4417C160.747 63.4407 160.745 63.4392 160.743 63.4373C160.741 63.4354 160.74 63.4332 160.739 63.4307C160.738 63.4283 160.738 63.4257 160.738 63.4231C160.725 63.3474 160.69 63.2772 160.638 63.2211C160.617 63.1796 160.555 63.0979 160.515 63.0362C160.494 62.9948 160.494 62.9352 160.474 62.8726C160.434 62.7494 160.393 62.5696 160.352 62.4211C160.287 62.2464 160.213 62.0752 160.13 61.9081C160.126 61.8643 160.111 61.8221 160.088 61.7848C160.047 61.7646 160.026 61.6616 159.988 61.5829C159.985 61.583 159.983 61.5826 159.98 61.5816C159.978 61.5807 159.975 61.5792 159.973 61.5773C159.971 61.5754 159.97 61.5731 159.969 61.5706C159.968 61.5681 159.967 61.5654 159.967 61.5626C159.952 61.513 159.931 61.465 159.907 61.4192C159.845 61.3182 159.743 61.2172 159.683 61.1324C159.613 61.0393 159.539 60.9502 159.459 60.8657C159.307 60.6851 159.144 60.5138 158.972 60.3527C158.93 60.3113 158.872 60.291 158.829 60.2517C158.743 60.1742 158.662 60.0919 158.585 60.0052C158.42 59.8404 158.236 59.6957 158.038 59.574C157.999 59.5295 157.95 59.4949 157.895 59.473C157.839 59.4502 157.785 59.4229 157.733 59.3911L157.712 59.3498C157.691 59.3498 157.67 59.37 157.67 59.3498C157.649 59.3296 157.63 59.2881 157.61 59.2881C157.61 59.2881 157.568 59.3083 157.568 59.2881L157.547 59.2467C157.547 59.2467 157.507 59.2669 157.507 59.2467C157.484 59.2216 157.456 59.2007 157.426 59.1851C157.405 59.1649 157.385 59.1649 157.343 59.1437C157.324 59.1235 157.303 59.1235 157.262 59.1023C157.241 59.0821 157.222 59.0821 157.181 59.0609C157.16 59.0407 157.14 59.0407 157.1 59.0195C157.079 58.9993 157.059 58.9993 157.019 58.9781C157.016 58.9782 157.013 58.9778 157.011 58.9768C157.008 58.9759 157.006 58.9744 157.004 58.9725C157.002 58.9706 157.001 58.9683 157 58.9658C156.999 58.9633 156.998 58.9606 156.998 58.9579C156.957 58.9377 156.936 58.9579 156.898 58.9377C156.877 58.9377 156.877 58.8963 156.877 58.8963C156.836 58.8761 156.796 58.876 156.755 58.8548C156.734 58.8346 156.713 58.8346 156.674 58.8134C156.536 58.7818 156.4 58.7406 156.268 58.6902C156.265 58.6903 156.263 58.6899 156.26 58.689C156.257 58.688 156.255 58.6865 156.253 58.6847C156.251 58.6828 156.25 58.6805 156.249 58.678C156.248 58.6755 156.247 58.6728 156.247 58.67C156.187 58.6498 156.085 58.6286 156.023 58.6084C156.002 58.5882 155.942 58.5882 155.901 58.567C155.836 58.5624 155.773 58.5412 155.718 58.5054C155.698 58.5054 155.718 58.4852 155.698 58.4852C155.655 58.4689 155.614 58.4483 155.576 58.4236C155.557 58.4236 155.576 58.4034 155.557 58.4034C155.49 58.3721 155.428 58.3305 155.373 58.2801C155.354 58.2599 155.354 58.2185 155.333 58.2185C155.311 58.219 155.289 58.2119 155.271 58.1983V58.1569H155.252V58.1155H155.231V58.0741H155.21V58.0327C155.129 57.9913 155.129 57.8065 155.15 57.663C155.15 57.5812 155.169 57.4994 155.169 57.461C155.169 57.4408 155.21 57.4196 155.21 57.3994C155.209 57.3882 155.21 57.3769 155.213 57.3662C155.217 57.3555 155.223 57.3458 155.231 57.3378C155.252 57.3176 155.271 57.3176 155.291 57.2964C155.291 57.2741 155.298 57.2524 155.312 57.2348C155.333 57.2146 155.412 57.2146 155.455 57.1934C155.455 57.1934 155.455 57.1732 155.474 57.1732C155.414 57.153 155.474 57.0914 155.495 57.0722"
        fill="#F9F9F9" />
    <path fill-rule="evenodd" clip-rule="evenodd"
        d="M154.975 60.6283C154.975 60.6229 154.977 60.6178 154.981 60.614C154.985 60.6102 154.99 60.6081 154.995 60.6081C155.19 60.5792 155.388 60.5724 155.585 60.5879C155.59 60.5879 155.595 60.59 155.599 60.5938C155.603 60.5976 155.605 60.6027 155.605 60.6081C155.685 60.6081 155.767 60.5879 155.805 60.5879C155.805 60.5933 155.807 60.5984 155.811 60.6022C155.815 60.606 155.82 60.6081 155.825 60.6081C155.846 60.6081 155.866 60.6283 155.887 60.6283C155.915 60.6274 155.943 60.6344 155.967 60.6485C155.987 60.6485 156.008 60.6899 156.028 60.6899C156.055 60.7153 156.091 60.73 156.128 60.7313H156.169C156.189 60.7313 156.208 60.7727 156.229 60.7727C156.27 60.7929 156.329 60.7929 156.372 60.8141C156.392 60.8141 156.413 60.8555 156.433 60.8555C156.453 60.8757 156.474 60.8555 156.513 60.8757C156.534 60.8757 156.554 60.9171 156.574 60.9171C156.595 60.9373 156.615 60.9171 156.656 60.9373C156.677 60.9373 156.697 60.9788 156.718 60.9788C156.759 60.999 156.798 60.9787 156.859 61.0202C156.879 61.0202 156.9 61.0616 156.92 61.0616C156.92 61.0616 156.961 61.0414 156.961 61.0616C157.036 61.115 157.118 61.1566 157.205 61.1848C157.248 61.2011 157.289 61.2217 157.328 61.2464C157.349 61.2464 157.369 61.2878 157.388 61.2878C157.417 61.2847 157.446 61.2918 157.47 61.308C157.507 61.3303 157.541 61.3579 157.57 61.3898L157.691 61.4514L157.814 61.513C157.897 61.5454 157.973 61.5942 158.037 61.6565C158.057 61.6767 158.098 61.6979 158.119 61.7181V61.7595C158.139 61.7797 158.16 61.7797 158.18 61.8009C158.2 61.8221 158.241 61.8423 158.26 61.8625V61.9039C158.28 61.9241 158.301 61.9241 158.321 61.9453C158.341 61.9665 158.382 61.9867 158.403 62.0069C158.424 62.0271 158.444 62.0685 158.464 62.0887C158.484 62.1089 158.525 62.1292 158.546 62.1504C158.567 62.1716 158.564 62.212 158.585 62.2514C158.588 62.2512 158.59 62.2516 158.593 62.2526C158.595 62.2536 158.598 62.255 158.6 62.2569C158.602 62.2588 158.603 62.2611 158.604 62.2636C158.605 62.2661 158.606 62.2688 158.606 62.2716C158.606 62.313 158.626 62.2917 158.626 62.313C158.646 62.3544 158.646 62.3746 158.667 62.414C158.667 62.4342 158.708 62.4342 158.728 62.4554C158.748 62.4766 158.749 62.4756 158.749 62.4968L158.81 62.5584L158.83 62.5786C158.849 62.5988 158.849 62.6402 158.869 62.6796C158.869 62.6998 158.91 62.721 158.93 62.721C158.951 62.7624 158.951 62.822 158.971 62.8644C158.974 62.8644 158.976 62.865 158.979 62.8661C158.981 62.8671 158.984 62.8687 158.985 62.8707C158.987 62.8727 158.989 62.875 158.99 62.8776C158.991 62.8802 158.991 62.8829 158.991 62.8856C159.032 62.9674 159.073 63.1109 159.134 63.2139C159.134 63.2341 159.173 63.2553 159.194 63.2553V63.3371C159.199 63.3371 159.204 63.3392 159.208 63.343C159.212 63.3468 159.214 63.352 159.214 63.3573V63.4391C159.258 63.4914 159.299 63.5464 159.337 63.6037V63.6451H159.358C159.399 63.7684 159.399 63.9946 159.458 64.1582C159.463 64.1582 159.468 64.1604 159.472 64.1642C159.476 64.168 159.478 64.1731 159.478 64.1784C159.554 64.5094 159.588 64.8488 159.578 65.1884V65.5369C159.578 65.5571 159.557 65.5369 159.557 65.5571C159.557 65.6187 159.537 65.6187 159.496 65.6581C159.486 65.6774 159.479 65.6982 159.476 65.7197C159.456 65.7399 159.416 65.7399 159.396 65.7813C159.361 65.8244 159.334 65.8728 159.314 65.9247H159.273C159.253 65.9661 159.253 65.9661 159.212 65.9863C159.209 65.9863 159.207 65.9869 159.204 65.988C159.202 65.9891 159.199 65.9906 159.198 65.9926C159.196 65.9946 159.194 65.9969 159.193 65.9995C159.192 66.0021 159.192 66.0048 159.192 66.0076C158.986 66.0584 158.774 66.0792 158.562 66.0692C158.562 66.0692 158.562 66.0489 158.544 66.0489C158.503 66.0489 158.483 66.0086 158.444 66.0086C158.383 66.0086 158.28 65.8853 158.221 65.8439C158.201 65.8237 158.18 65.7823 158.16 65.7621C158.119 65.7207 158.078 65.7207 158.017 65.6803V65.6389C157.997 65.6187 157.997 65.5975 157.976 65.5773C157.976 65.5747 157.976 65.5721 157.975 65.5696C157.974 65.5672 157.972 65.5649 157.971 65.5631C157.969 65.5612 157.967 65.5597 157.964 65.5587C157.962 65.5576 157.959 65.5571 157.957 65.5571C157.941 65.4346 157.934 65.311 157.937 65.1874C157.933 65.1437 157.919 65.1016 157.896 65.0642C157.878 64.9257 157.851 64.7887 157.814 64.6542C157.789 64.4618 157.735 64.2746 157.652 64.0997V64.0583H157.631V64.0179H157.611V63.9764C157.591 63.9562 157.591 63.9148 157.55 63.8532C157.55 63.833 157.53 63.8532 157.53 63.833C157.53 63.7916 157.448 63.6896 157.407 63.631V63.5896C157.368 63.5694 157.327 63.4462 157.286 63.3876C157.261 63.345 157.234 63.3038 157.204 63.2644C157.169 63.218 157.129 63.1766 157.083 63.1412V63.0998H157.062C157.009 63.0494 156.961 62.9943 156.919 62.9351C156.823 62.8529 156.713 62.7901 156.594 62.7503C156.494 62.7089 156.412 62.6493 156.33 62.6069C156.31 62.6069 156.33 62.5867 156.31 62.5867C156.291 62.5769 156.27 62.57 156.249 62.5665C156.228 62.5665 156.208 62.5251 156.189 62.5251C156.124 62.5065 156.062 62.479 156.005 62.4433C156 62.4433 155.995 62.4411 155.991 62.4374C155.987 62.4336 155.985 62.4284 155.985 62.4231C155.944 62.4018 155.905 62.4018 155.864 62.3614C155.843 62.3614 155.823 62.32 155.803 62.32C155.743 62.3032 155.681 62.2964 155.619 62.2999C155.6 62.2999 155.58 62.2584 155.559 62.2584H155.518C155.515 62.2586 155.513 62.2581 155.51 62.2572C155.507 62.2562 155.505 62.2548 155.503 62.2529C155.501 62.251 155.5 62.2487 155.499 62.2462C155.497 62.2437 155.497 62.241 155.497 62.2382C155.354 62.1766 155.253 62.1372 155.09 62.0736C155.062 62.0746 155.034 62.0676 155.01 62.0534C154.99 62.0534 154.969 62.012 154.949 62.012C154.929 61.9918 154.908 62.012 154.867 61.9918C154.847 61.9716 154.826 61.9504 154.806 61.9504C154.786 61.9302 154.745 61.9504 154.726 61.9302C154.675 61.8917 154.633 61.8428 154.603 61.7867C154.603 61.7665 154.583 61.7868 154.583 61.7666C154.583 61.7251 154.522 61.7251 154.522 61.7049C154.522 61.6635 154.46 61.6635 154.46 61.6231V61.603C154.419 61.4914 154.412 61.3701 154.44 61.2545C154.436 61.1718 154.442 61.0889 154.46 61.008C154.465 61.008 154.47 61.0059 154.474 61.0021C154.478 60.9983 154.48 60.9932 154.48 60.9879C154.48 60.9677 154.521 60.9262 154.562 60.8868C154.583 60.8666 154.583 60.8454 154.603 60.8252H154.644C154.664 60.805 154.664 60.805 154.685 60.805L154.745 60.7636C154.827 60.7222 154.929 60.6626 154.97 60.6404L154.975 60.6283ZM154.629 65.4106L154.263 65.2258C154.202 64.939 154.101 64.8976 154.081 64.6713C154.071 64.5551 154.071 64.4381 154.081 64.3219C154.081 64.3017 154.101 64.1784 154.101 64.0956C154.104 64.0958 154.106 64.0953 154.109 64.0944C154.111 64.0934 154.114 64.092 154.116 64.0901C154.118 64.0882 154.119 64.0859 154.12 64.0834C154.121 64.0809 154.122 64.0782 154.122 64.0754C154.122 64.034 154.081 63.9744 154.101 63.9108C154.104 63.9109 154.106 63.9105 154.109 63.9095C154.111 63.9086 154.114 63.9071 154.116 63.9052C154.118 63.9033 154.119 63.9011 154.12 63.8986C154.121 63.896 154.122 63.8933 154.122 63.8906C154.156 63.7799 154.211 63.677 154.284 63.5876H154.325C154.335 63.5683 154.342 63.5475 154.346 63.526C154.452 63.4782 154.56 63.4371 154.671 63.4028L154.792 63.3614C154.892 63.2997 155.017 63.3412 155.219 63.3614L155.239 63.3815C155.341 63.3787 155.443 63.3854 155.544 63.4017C155.544 63.4071 155.546 63.4122 155.55 63.416C155.554 63.4198 155.559 63.422 155.564 63.422C155.585 63.422 155.605 63.4421 155.624 63.4421L155.747 63.5038C155.775 63.5007 155.804 63.5078 155.828 63.5239C155.849 63.5452 155.869 63.5856 155.89 63.5856C155.956 63.608 156.018 63.6422 156.072 63.6866V63.728C156.132 63.7649 156.176 63.8238 156.195 63.8926C156.214 63.934 156.234 63.9936 156.255 64.036C156.303 64.1258 156.337 64.2226 156.355 64.3229C156.358 64.3909 156.351 64.4589 156.334 64.5249C156.334 64.5249 156.334 64.5865 156.314 64.6067V64.6481C156.314 64.6683 156.293 64.6895 156.293 64.7299C156.293 64.7511 156.272 64.7713 156.272 64.8117L156.252 64.8935H156.231C156.231 64.8935 156.252 64.9349 156.231 64.9349C156.199 64.9568 156.172 64.9845 156.151 65.0167C156.13 65.0369 156.13 65.0784 156.11 65.0986C156.09 65.1188 156.049 65.1187 156.049 65.14C156.008 65.1814 156.008 65.241 155.967 65.2834C155.946 65.3036 155.907 65.3036 155.907 65.3248C155.887 65.3248 155.866 65.3662 155.866 65.3864C155.819 65.403 155.771 65.4168 155.723 65.4278C155.688 65.4362 155.654 65.4501 155.623 65.4692C155.604 65.4692 155.563 65.5106 155.543 65.5308C155.482 65.551 155.4 65.5308 155.32 65.551C155.279 65.5712 155.054 65.652 154.974 65.6127C154.953 65.6127 154.953 65.5712 154.953 65.5712C154.953 65.5712 154.912 65.5914 154.912 65.5712C154.891 65.551 154.871 65.5096 154.83 65.5096C154.789 65.5096 154.769 65.4682 154.73 65.4682C154.669 65.4268 154.669 65.4066 154.63 65.4066"
        fill="#F9F9F9" />
</svg>
