<svg width="50" height="50" viewBox="0 0 50 50" fill="none" xmlns="http://www.w3.org/2000/svg">
<rect width="50" height="50" fill="white" style="mix-blend-mode:multiply"/>
<path d="M25 35.9375C24.5365 35.9375 24.0833 36.075 23.6979 36.3325C23.3125 36.5901 23.0121 36.9561 22.8347 37.3844C22.6573 37.8126 22.6109 38.2839 22.7013 38.7385C22.7917 39.1932 23.015 39.6108 23.3427 39.9386C23.6705 40.2663 24.0881 40.4896 24.5428 40.58C24.9974 40.6704 25.4687 40.624 25.8969 40.4466C26.3252 40.2692 26.6912 39.9688 26.9488 39.5834C27.2063 39.198 27.3438 38.7448 27.3438 38.2813C27.3438 37.6597 27.0968 37.0635 26.6573 36.624C26.2178 36.1845 25.6216 35.9375 25 35.9375Z" fill="#FABB1A"/>
<path d="M26.5625 18.75H23.4375V32.8125H26.5625V18.75Z" fill="#FABB1A"/>
<path d="M45.3125 46.875H4.68751C4.41907 46.875 4.15514 46.8059 3.9212 46.6742C3.68725 46.5426 3.49117 46.3528 3.35186 46.1234C3.21255 45.8939 3.13471 45.6324 3.12585 45.3641C3.11699 45.0958 3.1774 44.8298 3.30126 44.5916L23.6138 5.52909C23.7457 5.27539 23.9447 5.06276 24.1892 4.91437C24.4336 4.76597 24.7141 4.6875 25 4.6875C25.286 4.6875 25.5664 4.76597 25.8109 4.91437C26.0553 5.06276 26.2543 5.27539 26.3863 5.52909L46.6988 44.5916C46.8226 44.8298 46.883 45.0958 46.8742 45.3641C46.8653 45.6324 46.7875 45.8939 46.6482 46.1234C46.5089 46.3528 46.3128 46.5426 46.0788 46.6742C45.8449 46.8059 45.581 46.875 45.3125 46.875ZM7.26673 43.75H42.7333L42.7364 43.7449L25.0031 9.64284H24.9969L7.26361 43.7449L7.26673 43.75Z" fill="#FABB1A"/>
</svg>
